Coordinates
version=1
nRows=8
nColumns=63
inDegrees=yes

Units are S.I. units (second, meters, Newtons, ...)
If the header above contains a line with 'inDegrees', this indicates whether rotational values are in degrees (yes) or radians (no).

endheader
time	pelvis_tilt	pelvis_list	pelvis_rotation	pelvis_tx	pelvis_ty	pelvis_tz	hip_flexion_r	hip_adduction_r	hip_rotation_r	knee_angle_r	knee_angle_r_beta	ankle_angle_r	subtalar_angle_r	mtp_angle_r	hip_flexion_l	hip_adduction_l	hip_rotation_l	knee_angle_l	knee_angle_l_beta	ankle_angle_l	subtalar_angle_l	mtp_angle_l	L5_S1_Flex_Ext	L5_S1_Lat_Bending	L5_S1_axial_rotation	L4_L5_Flex_Ext	L4_L5_Lat_Bending	L4_L5_axial_rotation	L3_L4_Flex_Ext	L3_L4_Lat_Bending	L3_L4_axial_rotation	L2_L3_Flex_Ext	L2_L3_Lat_Bending	L2_L3_axial_rotation	L1_L2_Flex_Ext	L1_L2_Lat_Bending	L1_L2_axial_rotation	L1_T12_Flex_Ext	L1_T12_Lat_Bending	L1_T12_axial_rotation	Abs_r3	Abs_r2	Abs_r1	Abs_t1	Abs_t2	neck_flexion	neck_bending	neck_rotation	arm_flex_r	arm_add_r	arm_rot_r	elbow_flex_r	pro_sup_r	wrist_flex_r	wrist_dev_r	arm_flex_l	arm_add_l	arm_rot_l	elbow_flex_l	pro_sup_l	wrist_flex_l	wrist_dev_l
3.574468	0.371022	1.436303	109.779769	0.236919	0.648347	0.853543	3.336566	-3.041173	-7.408886	13.957028	0.243596	26.876275	7.303261	0.000000	3.830787	1.873309	-1.783481	11.890621	0.207530	25.691383	-7.038994	0.000000	-0.018430	-0.189574	1.140088	-0.034227	-0.252134	1.211343	-0.030279	-0.460931	1.211343	-0.021064	-0.460931	0.997577	-0.017114	-0.386580	0.926321	-0.010531	-0.293651	0.855066	-0.131646	-2.144504	6.340827	0.000000	0.000000	23.624525	7.390339	5.526880	-4.718476	-20.616133	36.445233	83.180775	61.609300	2.093077	16.663908	-5.653253	-9.654835	18.408392	87.642083	87.113233	-6.579209	5.221698
3.595745	0.288975	1.710416	107.875322	0.240651	0.649099	0.851352	3.274470	-2.752326	-4.852772	13.867787	0.242039	26.537204	6.120640	0.000000	4.169706	1.604367	-2.928018	13.420799	0.234237	26.129668	-7.933526	0.000000	-0.038120	-0.179369	1.252846	-0.070793	-0.238561	1.331149	-0.062627	-0.436118	1.331149	-0.043567	-0.436118	1.096240	-0.035398	-0.365769	1.017937	-0.021782	-0.277842	0.939634	-0.272288	-2.029057	6.967953	0.000000	0.000000	23.840425	6.629791	4.622920	-5.538493	-19.666101	35.178773	83.193941	61.659259	2.242945	16.836695	-5.572167	-9.300463	18.396969	87.189260	86.763725	-6.343552	4.587506
3.617021	0.233633	2.006137	105.803813	0.244474	0.649881	0.848997	3.174579	-2.440047	-2.181330	13.783451	0.240567	26.194250	4.968603	0.000000	4.512565	1.272748	-4.142808	14.997796	0.261761	26.708470	-8.728882	0.000000	-0.055565	-0.161879	1.414962	-0.103190	-0.215299	1.503397	-0.091288	-0.393592	1.503397	-0.063505	-0.393592	1.238091	-0.051598	-0.330103	1.149656	-0.031750	-0.250750	1.061221	-0.396895	-1.831205	7.869592	0.000000	0.000000	23.755573	6.239044	4.293311	-6.635267	-18.707408	33.597992	83.238030	61.352396	2.724803	17.318382	-5.338840	-9.079549	18.639085	86.640585	86.286497	-6.139905	4.099918
3.638298	0.202002	2.323839	103.601075	0.248293	0.650694	0.846552	3.038327	-2.122655	0.461774	13.726518	0.239573	25.864004	3.982127	0.000000	4.831926	0.885808	-5.385169	16.550258	0.288857	27.408046	-9.420582	0.000000	-0.069358	-0.136495	1.612465	-0.128805	-0.181539	1.713244	-0.113948	-0.331875	1.713244	-0.079269	-0.331875	1.410907	-0.064406	-0.278341	1.310128	-0.039631	-0.211431	1.209349	-0.495417	-1.544062	8.968048	0.000000	0.000000	23.305888	6.205656	4.546266	-7.857379	-17.796405	31.831014	83.270495	60.943410	3.509051	17.985732	-4.991756	-9.026589	19.204233	85.979258	85.553663	-6.023270	3.636188
3.659574	0.195438	2.658837	101.356109	0.251964	0.651527	0.844127	2.864654	-1.811545	2.932753	13.705023	0.239198	25.557348	3.227413	0.000000	5.121559	0.459896	-6.537121	18.029711	0.314678	28.183807	-10.062806	0.000000	-0.079402	-0.103266	1.827397	-0.147458	-0.137343	1.941609	-0.130450	-0.251080	1.941609	-0.090749	-0.251080	1.598972	-0.073733	-0.210579	1.484760	-0.045371	-0.159959	1.370548	-0.567163	-1.168162	10.163433	0.000000	0.000000	22.525223	6.419149	5.210402	-9.081591	-16.957735	29.976314	83.220899	60.622915	4.498287	18.635982	-4.537178	-9.151312	20.133672	85.182309	84.625673	-5.966558	3.173091
3.680851	0.225233	3.008221	99.230243	0.255240	0.652352	0.841864	2.647433	-1.511604	5.039164	13.718095	0.239426	25.285876	2.740686	0.000000	5.389330	0.021283	-7.406215	19.400113	0.338596	28.970631	-10.722854	0.000000	-0.086708	-0.061768	2.034664	-0.161026	-0.082152	2.161831	-0.142453	-0.150184	2.161831	-0.099099	-0.150184	1.780331	-0.080517	-0.125958	1.653165	-0.049545	-0.095679	1.525998	-0.619348	-0.698736	11.316192	0.000000	0.000000	21.540665	6.652248	5.907767	-10.269561	-16.180504	28.026493	83.048735	60.794039	5.561022	19.187931	-3.940042	-9.431459	21.456369	84.217616	83.577714	-5.858298	2.781171
3.702128	0.289483	3.336321	97.221944	0.258128	0.653108	0.839898	2.446180	-1.222751	6.818071	13.787006	0.240629	25.054005	2.485396	0.000000	5.658488	-0.436538	-8.086542	20.643366	0.360295	29.752103	-11.288967	0.000000	-0.089505	-0.013641	2.229455	-0.166220	-0.018142	2.368796	-0.147048	-0.033166	2.368796	-0.102296	-0.033166	1.950773	-0.083115	-0.027816	1.811432	-0.051143	-0.021129	1.672091	-0.639328	-0.154306	12.399560	0.000000	0.000000	20.502559	6.807508	6.480229	-11.337050	-15.489876	26.109310	82.668661	61.292864	6.564858	19.578328	-3.235235	-9.841258	23.116280	83.116511	82.442873	-5.940206	2.454028
3.723404	0.392972	3.658338	95.500644	0.260369	0.653812	0.838258	2.209450	-0.951925	8.103057	13.858811	0.241882	24.864055	2.475596	0.000000	5.906238	-0.874812	-8.392119	21.718804	0.379065	30.468625	-11.805757	0.000000	-0.091908	0.040513	2.386484	-0.170681	0.053882	2.535639	-0.150995	0.098503	2.535639	-0.105041	0.098503	2.088174	-0.085345	0.082614	1.939018	-0.052516	0.062754	1.789863	-0.656486	0.458290	13.272908	0.000000	0.000000	19.469139	6.672879	6.659104	-12.283126	-14.874833	24.186342	82.052749	62.352312	7.411337	19.855811	-2.364355	-10.326817	25.112203	81.805286	81.173837	-5.977980	2.258442
